<svg id="visual" viewBox="0 0 900 130" width="900" height="130" xmlns="http://www.w3.org/2000/svg" xmlns:xlink="http://www.w3.org/1999/xlink" version="1.1"><rect x="0" y="0" width="900" height="130" fill="#FFFFFF"></rect><path d="M0 85L64 79L129 63L193 76L257 106L321 63L386 106L450 95L514 78L579 83L643 90L707 53L771 63L836 76L900 100L900 0L836 0L771 0L707 0L643 0L579 0L514 0L450 0L386 0L321 0L257 0L193 0L129 0L64 0L0 0Z" fill="#a6b1e1"></path><path d="M0 82L64 67L129 63L193 55L257 67L321 94L386 69L450 81L514 49L579 60L643 85L707 71L771 83L836 50L900 74L900 0L836 0L771 0L707 0L643 0L579 0L514 0L450 0L386 0L321 0L257 0L193 0L129 0L64 0L0 0Z" fill="#9fa8e6"></path><path d="M0 46L64 83L129 52L193 76L257 64L321 75L386 54L450 65L514 51L579 56L643 89L707 46L771 60L836 81L900 48L900 0L836 0L771 0L707 0L643 0L579 0L514 0L450 0L386 0L321 0L257 0L193 0L129 0L64 0L0 0Z" fill="#9a9feb"></path><path d="M0 63L64 62L129 45L193 50L257 60L321 73L386 40L450 37L514 59L579 65L643 72L707 53L771 69L836 75L900 52L900 0L836 0L771 0L707 0L643 0L579 0L514 0L450 0L386 0L321 0L257 0L193 0L129 0L64 0L0 0Z" fill="#9794ee"></path><path d="M0 25L64 47L129 57L193 53L257 39L321 58L386 59L450 57L514 25L579 42L643 30L707 44L771 50L836 34L900 44L900 0L836 0L771 0L707 0L643 0L579 0L514 0L450 0L386 0L321 0L257 0L193 0L129 0L64 0L0 0Z" fill="#9789f0"></path><path d="M0 18L64 24L129 47L193 38L257 29L321 43L386 35L450 39L514 34L579 27L643 40L707 29L771 36L836 35L900 29L900 0L836 0L771 0L707 0L643 0L579 0L514 0L450 0L386 0L321 0L257 0L193 0L129 0L64 0L0 0Z" fill="#997df0"></path><path d="M0 14L64 18L129 25L193 34L257 35L321 28L386 25L450 30L514 27L579 33L643 29L707 18L771 21L836 26L900 19L900 0L836 0L771 0L707 0L643 0L579 0L514 0L450 0L386 0L321 0L257 0L193 0L129 0L64 0L0 0Z" fill="#9e70f0"></path><path d="M0 8L64 15L129 6L193 16L257 6L321 14L386 16L450 11L514 22L579 21L643 16L707 22L771 17L836 9L900 11L900 0L836 0L771 0L707 0L643 0L579 0L514 0L450 0L386 0L321 0L257 0L193 0L129 0L64 0L0 0Z" fill="#a460ed"></path></svg>