<svg id="visual" viewBox="0 0 960 200" width="960" height="200" xmlns="http://www.w3.org/2000/svg" xmlns:xlink="http://www.w3.org/1999/xlink" version="1.1"><rect x="0" y="0" width="960" height="200" fill="#FAF7F0"></rect><path d="M0 101L10 93.7C20 86.3 40 71.7 60 65.3C80 59 100 61 120 63.3C140 65.7 160 68.3 180 70.8C200 73.3 220 75.7 240 72.2C260 68.7 280 59.3 300 62.3C320 65.3 340 80.7 360 80.3C380 80 400 64 420 64.7C440 65.3 460 82.7 480 92C500 101.3 520 102.7 540 106.2C560 109.7 580 115.3 600 115.8C620 116.3 640 111.7 660 111.8C680 112 700 117 720 106.2C740 95.3 760 68.7 780 69.8C800 71 820 100 840 99.8C860 99.7 880 70.3 900 70C920 69.7 940 98.3 950 112.7L960 127L960 201L950 201C940 201 920 201 900 201C880 201 860 201 840 201C820 201 800 201 780 201C760 201 740 201 720 201C700 201 680 201 660 201C640 201 620 201 600 201C580 201 560 201 540 201C520 201 500 201 480 201C460 201 440 201 420 201C400 201 380 201 360 201C340 201 320 201 300 201C280 201 260 201 240 201C220 201 200 201 180 201C160 201 140 201 120 201C100 201 80 201 60 201C40 201 20 201 10 201L0 201Z" fill="#a6b1e1"></path><path d="M0 110L10 109.8C20 109.7 40 109.3 60 116.3C80 123.3 100 137.7 120 136C140 134.3 160 116.7 180 108C200 99.3 220 99.7 240 104.8C260 110 280 120 300 119.7C320 119.3 340 108.7 360 101.5C380 94.3 400 90.7 420 99.5C440 108.3 460 129.7 480 133.8C500 138 520 125 540 115.8C560 106.7 580 101.3 600 101.5C620 101.7 640 107.3 660 114.8C680 122.3 700 131.7 720 135.7C740 139.7 760 138.3 780 137C800 135.7 820 134.3 840 131C860 127.7 880 122.3 900 116.5C920 110.7 940 104.3 950 101.2L960 98L960 201L950 201C940 201 920 201 900 201C880 201 860 201 840 201C820 201 800 201 780 201C760 201 740 201 720 201C700 201 680 201 660 201C640 201 620 201 600 201C580 201 560 201 540 201C520 201 500 201 480 201C460 201 440 201 420 201C400 201 380 201 360 201C340 201 320 201 300 201C280 201 260 201 240 201C220 201 200 201 180 201C160 201 140 201 120 201C100 201 80 201 60 201C40 201 20 201 10 201L0 201Z" fill="#999bec"></path><path d="M0 147L10 143.2C20 139.3 40 131.7 60 130.3C80 129 100 134 120 134.5C140 135 160 131 180 128.7C200 126.3 220 125.7 240 128.8C260 132 280 139 300 139.5C320 140 340 134 360 134.7C380 135.3 400 142.7 420 148.7C440 154.7 460 159.3 480 152.2C500 145 520 126 540 118.3C560 110.7 580 114.3 600 119.8C620 125.3 640 132.7 660 137C680 141.3 700 142.7 720 147.2C740 151.7 760 159.3 780 153.8C800 148.3 820 129.7 840 123.3C860 117 880 123 900 122.8C920 122.7 940 116.3 950 113.2L960 110L960 201L950 201C940 201 920 201 900 201C880 201 860 201 840 201C820 201 800 201 780 201C760 201 740 201 720 201C700 201 680 201 660 201C640 201 620 201 600 201C580 201 560 201 540 201C520 201 500 201 480 201C460 201 440 201 420 201C400 201 380 201 360 201C340 201 320 201 300 201C280 201 260 201 240 201C220 201 200 201 180 201C160 201 140 201 120 201C100 201 80 201 60 201C40 201 20 201 10 201L0 201Z" fill="#9881f0"></path><path d="M0 151L10 154.5C20 158 40 165 60 171C80 177 100 182 120 178.2C140 174.3 160 161.7 180 156.2C200 150.7 220 152.3 240 155.3C260 158.3 280 162.7 300 167.8C320 173 340 179 360 179.7C380 180.3 400 175.7 420 170.7C440 165.7 460 160.3 480 158C500 155.7 520 156.3 540 160.3C560 164.3 580 171.7 600 176C620 180.3 640 181.7 660 179.7C680 177.7 700 172.3 720 172.5C740 172.7 760 178.3 780 181.7C800 185 820 186 840 181.5C860 177 880 167 900 164C920 161 940 165 950 167L960 169L960 201L950 201C940 201 920 201 900 201C880 201 860 201 840 201C820 201 800 201 780 201C760 201 740 201 720 201C700 201 680 201 660 201C640 201 620 201 600 201C580 201 560 201 540 201C520 201 500 201 480 201C460 201 440 201 420 201C400 201 380 201 360 201C340 201 320 201 300 201C280 201 260 201 240 201C220 201 200 201 180 201C160 201 140 201 120 201C100 201 80 201 60 201C40 201 20 201 10 201L0 201Z" fill="#a460ed"></path></svg>